<?xml version="1.0" encoding="utf-8"?>
<!-- Generator: Adobe Illustrator 19.0.0, SVG Export Plug-In . SVG Version: 6.00 Build 0)  -->
<svg version="1.1" id="Capa_1" xmlns="http://www.w3.org/2000/svg" xmlns:xlink="http://www.w3.org/1999/xlink" x="0px" y="0px"
	 viewBox="-61 264 488 265" style="enable-background:new -61 264 488 265;" xml:space="preserve">
<style type="text/css">
	.st0{fill:#EE4134;stroke:#EE4134;stroke-width:4;stroke-miterlimit:10;}
</style>
<g>
	<g>
		<path class="st0" d="M392.6,368.6L355,351.4l-33.2-52.9c-9.6-15.3-26.5-24.6-44.6-24.6H135.9c-16.4,0-31.9,7.6-41.9,20.6
			l-42.9,56.1l-71.4,19.6c-18.1,5-30.7,21.6-30.7,40.4V438c0,23.1,18.4,42.2,41.5,42.2h6.1c7.4,28.5,36.4,45.6,64.9,38.2
			c18.7-4.9,33.4-19.5,38.2-38.2h161.1c7.4,28.5,36.4,45.6,64.9,38.2c18.7-4.9,33.4-19.5,38.2-38.2h11.5c23.1,0,41.5-19.1,41.5-42.2
			v-31.2C417.1,390.4,407.5,375.4,392.6,368.6z M48.2,500.7c-18.8,0-34-15.2-34-34s15.2-34,34-34s34,15.2,34,34
			C82.3,485.3,67.1,500.6,48.2,500.7z M312.4,500.7c-18.8,0-34-15.2-34-34s15.2-34,34-34s34,15.2,34,34
			C346.5,485.3,331.3,500.6,312.4,500.7z M375.5,461h-10.2c-3.2-29.2-29.5-50.3-58.8-47.1c-24.8,2.7-44.4,22.3-47.1,47.1H101.1
			c-3.2-29.2-29.5-50.3-58.8-47.1C17.5,416.6-2.1,436.2-4.8,461h-4.8c-12.6,0-22.3-10.5-22.3-23v-27.3c-0.1-10.3,6.7-19.2,16.6-22
			l74.7-20.4c2-0.6,3.8-1.7,5.1-3.5l44.7-58.6c6.4-8.2,16.3-13,26.8-13h141.4c11.5-0.1,22.3,5.8,28.4,15.5l34.7,55.4
			c1,1.6,2.5,2.9,4.1,3.6l40.1,18.3c8.1,3.7,13.2,11.8,13.1,20.7V438h0.1C397.8,450.5,388,461,375.5,461z"/>
	</g>
</g>
</svg>
