<?xml version="1.0" encoding="utf-8"?>
<!-- Generator: Adobe Illustrator 19.0.0, SVG Export Plug-In . SVG Version: 6.00 Build 0)  -->
<svg version="1.1" id="Capa_1" xmlns="http://www.w3.org/2000/svg" xmlns:xlink="http://www.w3.org/1999/xlink" x="0px" y="0px"
	 viewBox="-61 264 488 265" style="enable-background:new -61 264 488 265;" xml:space="preserve">
<style type="text/css">
	.st0{fill:#EE4134;stroke:#EE4134;stroke-width:4;stroke-miterlimit:10;}
</style>
<g>
	<g>
		<path class="st0" d="M-27.4,369.7l37.9-17.2L44,299.6c9.7-15.3,26.7-24.6,45-24.6h142.7c16.5,0,32.2,7.6,42.3,20.6l43.3,56.1
			l72.1,19.6c18.3,5,31,21.6,31,40.4V439c0,23.1-18.6,42.2-41.9,42.2h-6.2c-7.5,28.5-36.8,45.6-65.5,38.2
			c-18.9-4.9-33.7-19.5-38.5-38.2H105.6c-7.5,28.5-36.8,45.6-65.5,38.2c-18.9-4.9-33.7-19.5-38.5-38.2h-11.6
			c-23.3,0-41.9-19.1-41.9-42.2v-31.2C-52.1,391.4-42.4,376.5-27.4,369.7z M320.2,501.7c19,0,34.4-15.2,34.4-34
			c0-18.8-15.4-34-34.4-34c-19,0-34.4,15.2-34.4,34C285.8,486.4,301.1,501.6,320.2,501.7z M53.6,501.7c19,0,34.4-15.2,34.4-34
			c0-18.8-15.4-34-34.4-34s-34.4,15.2-34.4,34C19.1,486.4,34.5,501.6,53.6,501.7z M-10.1,462H0.2c3.2-29.2,29.8-50.3,59.3-47.1
			c25.1,2.7,44.8,22.3,47.5,47.1h159.8c3.2-29.2,29.8-50.3,59.3-47.1c25.1,2.7,44.8,22.3,47.5,47.1h4.8c12.7,0,22.5-10.5,22.5-23
			v-27.3c0.1-10.3-6.8-19.2-16.7-22l-75.4-20.4c-2-0.6-3.9-1.7-5.1-3.5l-45.1-58.6c-6.5-8.2-16.5-13-27-13H89
			c-11.6-0.1-22.5,5.8-28.6,15.5l-35,55.4c-1,1.6-2.5,2.9-4.2,3.6l-40.5,18.3c-8.1,3.7-13.4,11.8-13.3,20.7V439h-0.1
			C-32.6,451.6-22.8,462-10.1,462z"/>
	</g>
</g>
</svg>
