<svg xmlns="http://www.w3.org/2000/svg" width="21.024" height="21.023" viewBox="0 0 21.024 21.023">
  <g id="close" transform="translate(0 -0.016)">
    <g id="Group_1589" data-name="Group 1589" transform="translate(0 0.016)">
      <path id="Path_284" data-name="Path 284" d="M12.828,10.528l7.861-7.861a1.152,1.152,0,0,0,0-1.626L20,.352a1.153,1.153,0,0,0-1.626,0L10.513,8.212,2.651.352a1.152,1.152,0,0,0-1.626,0L.336,1.04a1.151,1.151,0,0,0,0,1.626L8.2,10.528.336,18.388a1.153,1.153,0,0,0,0,1.626l.689.689a1.152,1.152,0,0,0,1.626,0l7.861-7.861L18.373,20.7a1.141,1.141,0,0,0,.813.336h0A1.141,1.141,0,0,0,20,20.7l.689-.689a1.153,1.153,0,0,0,0-1.626Z" transform="translate(0 -0.016)" fill="#fff"/>
    </g>
  </g>
</svg>
