<svg xmlns="http://www.w3.org/2000/svg" width="39" height="39" viewBox="0 0 39 39">
  <g id="email-i" transform="translate(-1010 -447)">
    <g id="Group_1618" data-name="Group 1618" transform="translate(349 165)">
      <circle id="Ellipse_26" data-name="Ellipse 26" cx="19.5" cy="19.5" r="19.5" transform="translate(661 282)" fill="#ffc74c"/>
      <path id="Path_306" data-name="Path 306" d="M19.063,59.882H1.972A1.974,1.974,0,0,0,0,61.854V73.686a1.974,1.974,0,0,0,1.972,1.972H19.063a1.974,1.974,0,0,0,1.972-1.972V61.854A1.974,1.974,0,0,0,19.063,59.882Zm0,1.315a.654.654,0,0,1,.252.051l-8.8,7.625-8.8-7.625a.654.654,0,0,1,.252-.051Zm0,13.147H1.972a.658.658,0,0,1-.657-.657V62.637l8.772,7.6a.658.658,0,0,0,.861,0l8.772-7.6V73.686a.658.658,0,0,1-.657.657Z" transform="translate(669.775 233.696)" stroke="#000" stroke-width="0.5"/>
    </g>
  </g>
</svg>
