<svg xmlns="http://www.w3.org/2000/svg" width="32" height="32" viewBox="0 0 32 32"><g transform="translate(-98 -2241)"><circle cx="16" cy="16" r="16" transform="translate(98 2241)" fill="#fff"/><path d="M15.641,59.882H1.618A1.62,1.62,0,0,0,0,61.5v9.708a1.62,1.62,0,0,0,1.618,1.618H15.641a1.62,1.62,0,0,0,1.618-1.618V61.5a1.62,1.62,0,0,0-1.618-1.618Zm0,1.079a.536.536,0,0,1,.207.042L8.63,67.259,1.411,61a.537.537,0,0,1,.207-.042Zm0,10.787H1.618a.54.54,0,0,1-.539-.539V62.142l7.2,6.238a.54.54,0,0,0,.707,0l7.2-6.238v9.066a.54.54,0,0,1-.545.54Z" transform="translate(105.2 2190.718)" fill="#ffc74c" stroke="#ffc74c" stroke-width="0.5"/></g></svg>