<svg xmlns="http://www.w3.org/2000/svg" width="40" height="40" viewBox="0 0 40 40">
  <g id="Group_1496" data-name="Group 1496" transform="translate(-1119 -2861)">
    <circle id="Ellipse_18" data-name="Ellipse 18" cx="20" cy="20" r="20" transform="translate(1119 2861)" fill="none"/>
    <g id="google-plus" transform="translate(1132 2869.5)">
      <path id="Path_178" data-name="Path 178" d="M7.5,19.5c4.328,0,7.2-3.038,7.2-7.326a6.408,6.408,0,0,0-.122-1.248H7.5V13.5h4.257A4.062,4.062,0,0,1,7.5,16.737a4.738,4.738,0,0,1,0-9.475,4.213,4.213,0,0,1,2.988,1.156l2.036-1.954A7.172,7.172,0,0,0,7.5,4.5a7.5,7.5,0,0,0,0,15Z" fill="#fff"/>
    </g>
  </g>
</svg>
