<svg xmlns="http://www.w3.org/2000/svg" width="39" height="39" viewBox="0 0 39 39">
  <g id="Group_1608" data-name="Group 1608" transform="translate(-1116 -447)">
    <circle id="Ellipse_24" data-name="Ellipse 24" cx="19.5" cy="19.5" r="19.5" transform="translate(1116 447)" fill="#ffc74c"/>
    <path id="calendar_1_" data-name="calendar (1)" d="M17.864,2.552h-.851V.851A.851.851,0,0,0,16.163,0h-.851a.851.851,0,0,0-.851.851v1.7H5.955V.851A.851.851,0,0,0,5.1,0H4.253A.851.851,0,0,0,3.4.851v1.7H2.552A2.555,2.555,0,0,0,0,5.1v12.76a2.555,2.555,0,0,0,2.552,2.552H17.864a2.555,2.555,0,0,0,2.552-2.552V5.1A2.555,2.555,0,0,0,17.864,2.552Zm.851,15.312a.852.852,0,0,1-.851.851H2.552a.852.852,0,0,1-.851-.851V8.541H18.715Zm0,0" transform="translate(1125 456)"/>
  </g>
</svg>
