<svg xmlns="http://www.w3.org/2000/svg" width="40" height="40" viewBox="0 0 40 40">
  <g id="Group_1497" data-name="Group 1497" transform="translate(-1175 -2861)">
    <circle id="Ellipse_20" data-name="Ellipse 20" cx="20" cy="20" r="20" transform="translate(1175 2861)" fill="none"/>
    <g id="instagram_2_" data-name="instagram (2)" transform="translate(1186 2872)">
      <path id="Path_179" data-name="Path 179" d="M18.106,5.336a6.666,6.666,0,0,0-.422-2.2,4.45,4.45,0,0,0-1.047-1.608A4.452,4.452,0,0,0,15.028.476a6.665,6.665,0,0,0-2.2-.422C11.855.011,11.546,0,9.08,0S6.3.011,5.336.055a6.667,6.667,0,0,0-2.2.422A4.45,4.45,0,0,0,1.524,1.524,4.451,4.451,0,0,0,.476,3.132a6.666,6.666,0,0,0-.422,2.2C.011,6.3,0,6.614,0,9.08s.011,2.775.055,3.744a6.665,6.665,0,0,0,.422,2.2,4.45,4.45,0,0,0,1.047,1.608,4.449,4.449,0,0,0,1.608,1.047,6.663,6.663,0,0,0,2.2.422c.968.044,1.278.055,3.744.055s2.775-.01,3.744-.055a6.663,6.663,0,0,0,2.2-.422,4.642,4.642,0,0,0,2.655-2.655,6.664,6.664,0,0,0,.422-2.2c.044-.968.055-1.278.055-3.744S18.15,6.3,18.106,5.336Zm-1.634,7.413a5.024,5.024,0,0,1-.313,1.686,3.007,3.007,0,0,1-1.723,1.723,5.024,5.024,0,0,1-1.686.313c-.957.044-1.244.053-3.669.053s-2.712-.009-3.669-.053a5.026,5.026,0,0,1-1.686-.313,2.814,2.814,0,0,1-1.044-.679A2.813,2.813,0,0,1,2,14.435a5.024,5.024,0,0,1-.313-1.686c-.044-.957-.053-1.245-.053-3.669s.009-2.712.053-3.669A5.027,5.027,0,0,1,2,3.725a2.815,2.815,0,0,1,.679-1.044A2.811,2.811,0,0,1,3.725,2a5.023,5.023,0,0,1,1.686-.313c.957-.044,1.245-.053,3.669-.053h0c2.425,0,2.712.009,3.669.053A5.025,5.025,0,0,1,14.435,2a2.815,2.815,0,0,1,1.044.679,2.811,2.811,0,0,1,.679,1.044,5.019,5.019,0,0,1,.313,1.686c.044.957.053,1.245.053,3.669S16.515,11.792,16.471,12.749Zm0,0" fill="#fff"/>
      <path id="Path_180" data-name="Path 180" d="M129.2,124.539a4.663,4.663,0,1,0,4.663,4.663A4.663,4.663,0,0,0,129.2,124.539Zm0,7.689a3.027,3.027,0,1,1,3.027-3.027A3.027,3.027,0,0,1,129.2,132.229Zm0,0" transform="translate(-120.122 -120.122)" fill="#fff"/>
      <path id="Path_181" data-name="Path 181" d="M364.109,89.715a1.09,1.09,0,1,1-1.09-1.09A1.09,1.09,0,0,1,364.109,89.715Zm0,0" transform="translate(-349.092 -85.482)" fill="#fff"/>
    </g>
  </g>
</svg>
