<svg xmlns="http://www.w3.org/2000/svg" width="32" height="32" viewBox="0 0 32 32">
  <g id="Group_12" data-name="Group 12" transform="translate(-599 -349)">
    <circle id="Ellipse_23" data-name="Ellipse 23" cx="16" cy="16" r="16" transform="translate(599 349)" fill="#ee3824"/>
    <g id="internet" transform="translate(604 350.85)">
      <path id="Path_1" data-name="Path 1" d="M144.761,150.011v-3.123a11.708,11.708,0,0,1-3.529-.752,16.877,16.877,0,0,0-.574,3.874Z" transform="translate(-134.809 -137.041)" fill="#fff"/>
      <path id="Path_2" data-name="Path 2" d="M144.761,275.071v-3.123h-4.1a16.879,16.879,0,0,0,.574,3.874,11.706,11.706,0,0,1,3.527-.752Z" transform="translate(-134.809 -257.619)" fill="#fff"/>
      <path id="Path_3" data-name="Path 3" d="M164.714,30.709a10.415,10.415,0,0,0,3.1.678V27.043a5.932,5.932,0,0,0-3.1,3.666Z" transform="translate(-157.864 -22.899)" fill="#fff"/>
      <path id="Path_4" data-name="Path 4" d="M275.05,380.411a10.412,10.412,0,0,0-3.1-.678v4.344a5.932,5.932,0,0,0,3.1-3.666Z" transform="translate(-260.639 -360.923)" fill="#fff"/>
      <path id="Path_5" data-name="Path 5" d="M4.491,94.532a18.164,18.164,0,0,1,.681-4.437,11.761,11.761,0,0,1-2.607-1.846A10.559,10.559,0,0,0,0,94.532Z" transform="translate(0 -81.562)" fill="#fff"/>
      <path id="Path_6" data-name="Path 6" d="M387.547,271.947a18.167,18.167,0,0,1-.681,4.437,11.761,11.761,0,0,1,2.607,1.846,10.559,10.559,0,0,0,2.567-6.281Z" transform="translate(-370.777 -257.618)" fill="#fff"/>
      <path id="Path_7" data-name="Path 7" d="M4.491,271.947H0a10.559,10.559,0,0,0,2.567,6.281,11.761,11.761,0,0,1,2.607-1.846,18.164,18.164,0,0,1-.681-4.437Z" transform="translate(0 -257.619)" fill="#fff"/>
      <path id="Path_8" data-name="Path 8" d="M167.817,384.077v-4.344a10.408,10.408,0,0,0-3.1.678,5.93,5.93,0,0,0,3.1,3.666Z" transform="translate(-157.865 -360.923)" fill="#fff"/>
      <path id="Path_9" data-name="Path 9" d="M302.415,409.821a7.815,7.815,0,0,1-3.2,4.088,10.555,10.555,0,0,0,5.3-2.571A10.481,10.481,0,0,0,302.415,409.821Z" transform="translate(-286.772 -389.759)" fill="#fff"/>
      <path id="Path_10" data-name="Path 10" d="M86.678,409.821a10.478,10.478,0,0,0-2.1,1.517,10.556,10.556,0,0,0,5.3,2.571,7.815,7.815,0,0,1-3.2-4.088Z" transform="translate(-81.061 -389.759)" fill="#fff"/>
      <path id="Path_11" data-name="Path 11" d="M86.677,7.24a7.815,7.815,0,0,1,3.2-4.09,10.555,10.555,0,0,0-5.3,2.565,10.477,10.477,0,0,0,2.1,1.525Z" transform="translate(-81.06)" fill="#fff"/>
      <path id="Path_12" data-name="Path 12" d="M271.947,271.947v3.124a11.706,11.706,0,0,1,3.529.752,16.879,16.879,0,0,0,.574-3.874Z" transform="translate(-260.638 -257.618)" fill="#fff"/>
      <path id="Path_13" data-name="Path 13" d="M386.866,90.1a18.167,18.167,0,0,1,.681,4.437h4.5a10.559,10.559,0,0,0-2.567-6.281A11.766,11.766,0,0,1,386.866,90.1Z" transform="translate(-370.777 -81.561)" fill="#fff"/>
      <path id="Path_14" data-name="Path 14" d="M271.947,146.888v3.123h4.1a16.877,16.877,0,0,0-.574-3.874A11.708,11.708,0,0,1,271.947,146.888Z" transform="translate(-260.638 -137.04)" fill="#fff"/>
      <path id="Path_15" data-name="Path 15" d="M271.947,27.043v4.344a10.412,10.412,0,0,0,3.1-.678A5.932,5.932,0,0,0,271.947,27.043Z" transform="translate(-260.638 -22.899)" fill="#fff"/>
      <path id="Path_16" data-name="Path 16" d="M299.215,3.15a7.815,7.815,0,0,1,3.2,4.09,10.476,10.476,0,0,0,2.1-1.525,10.556,10.556,0,0,0-5.3-2.565Z" transform="translate(-286.772 0)" fill="#fff"/>
    </g>
  </g>
</svg>
