<svg xmlns="http://www.w3.org/2000/svg" width="811.974" height="198.336" viewBox="0 0 811.974 198.336"><g transform="translate(-15011.727 836.218)"><g transform="translate(14234.5 -1011.1)"><path d="M996.6,243a19.987,19.987,0,0,1,6.9,11.5H992.6a9.415,9.415,0,0,0-3.7-4.6,10.493,10.493,0,0,0-5.9-1.7,9.164,9.164,0,0,0-7.3,3.3c-1.9,2.2-2.8,5.1-2.8,8.8s.9,6.6,2.8,8.8a9.027,9.027,0,0,0,7.3,3.3,10.493,10.493,0,0,0,5.9-1.7,9.415,9.415,0,0,0,3.7-4.6h10.9a19.291,19.291,0,0,1-6.9,11.5c-3.5,2.9-8,4.3-13.4,4.3a21.757,21.757,0,0,1-10.9-2.7,18.83,18.83,0,0,1-7.2-7.6,24.023,24.023,0,0,1-2.6-11.2,22.865,22.865,0,0,1,2.6-11.2,19.091,19.091,0,0,1,7.2-7.7,21.236,21.236,0,0,1,10.9-2.7C988.6,238.7,993.1,240.1,996.6,243Z" fill="#4c241d"/><path d="M1039.6,251.6c2.3,2.6,3.4,6.1,3.4,10.6v19.4h-10.3V263.4a7.146,7.146,0,0,0-1.8-5.2,6.484,6.484,0,0,0-4.7-1.9,6.7,6.7,0,0,0-5,2,8.021,8.021,0,0,0-1.8,5.6v17.8h-10.3V237.3h10.3v17a10.876,10.876,0,0,1,4.3-4.7,12.158,12.158,0,0,1,6.7-1.7A10.732,10.732,0,0,1,1039.6,251.6Z" fill="#4c241d"/><path d="M1081.3,266.7h-23.2a7.9,7.9,0,0,0,1.9,5.4,6.2,6.2,0,0,0,4.4,1.7,6.563,6.563,0,0,0,3.8-1.1,5.3,5.3,0,0,0,2-2.9h10.9a13.059,13.059,0,0,1-2.9,6.3,16.126,16.126,0,0,1-5.6,4.4,17.259,17.259,0,0,1-7.6,1.6,17.508,17.508,0,0,1-8.7-2.1,15.717,15.717,0,0,1-6-6,18.842,18.842,0,0,1-2.2-9.1,18.545,18.545,0,0,1,2.1-9.1,13.679,13.679,0,0,1,6-5.9,18.17,18.17,0,0,1,8.8-2.1,19.327,19.327,0,0,1,8.8,2,15.4,15.4,0,0,1,5.9,5.7,16.743,16.743,0,0,1,2.1,8.5C1081.6,264.8,1081.5,265.7,1081.3,266.7Zm-11.8-9.3a6.371,6.371,0,0,0-4.5-1.6,6.95,6.95,0,0,0-4.7,1.7,7.424,7.424,0,0,0-2.1,4.9h13.1A6.505,6.505,0,0,0,1069.5,257.4Z" fill="#4c241d"/><path d="M1106.3,249.4a10.994,10.994,0,0,1,4.1,4.7V248h10.2v33.5h-10.2v-6.1a9.891,9.891,0,0,1-4.1,4.7,11.6,11.6,0,0,1-6.6,1.7,13.335,13.335,0,0,1-7.4-2.1,14.6,14.6,0,0,1-5.2-6,20,20,0,0,1-1.9-9.1,19.718,19.718,0,0,1,1.9-9.1,13.789,13.789,0,0,1,12.6-8A14.149,14.149,0,0,1,1106.3,249.4Zm-8.6,9.4a10,10,0,0,0,0,12,7,7,0,0,0,5.3,2.2,6.8,6.8,0,0,0,5.3-2.2,8.355,8.355,0,0,0,2.1-5.9,8.44,8.44,0,0,0-2.1-6,7.608,7.608,0,0,0-10.6-.1Z" fill="#4c241d"/><path d="M1155.9,249.7a14.956,14.956,0,0,1,5.2,5.9,22.742,22.742,0,0,1,0,18.2,14.6,14.6,0,0,1-5.2,6,13.574,13.574,0,0,1-7.4,2.1,12.443,12.443,0,0,1-6.6-1.7,10.159,10.159,0,0,1-4-4.7v22h-10.3V248.1h10.3v6.1a9.693,9.693,0,0,1,4-4.7,11.6,11.6,0,0,1,6.6-1.7A12.44,12.44,0,0,1,1155.9,249.7Zm-16,9.1a8.44,8.44,0,0,0-2.1,6,8.029,8.029,0,0,0,2.1,5.9,6.947,6.947,0,0,0,5.3,2.2,6.662,6.662,0,0,0,5.3-2.2,10,10,0,0,0,0-12,7,7,0,0,0-5.3-2.2A8.1,8.1,0,0,0,1139.9,258.8Z" fill="#4c241d"/><path d="M1216,239.4v42.1h-10.3V255.2l-9.1,26.3h-8.9l-9.2-26.4v26.4h-10.3V239.4h12.5l11.5,29.3,11.2-29.3H1216Z" fill="#4c241d"/><path d="M1223.8,234.8a7.2,7.2,0,0,1,8.8,0,5.066,5.066,0,0,1,1.7,3.9,5.007,5.007,0,0,1-1.7,3.8,7.2,7.2,0,0,1-8.8,0,5.007,5.007,0,0,1-1.7-3.8A5.066,5.066,0,0,1,1223.8,234.8Zm9.5,13.3v33.5H1223V248.1Z" fill="#4c241d"/><path d="M1270.8,251.6c2.3,2.6,3.4,6.1,3.4,10.6v19.4h-10.3V263.4a7.146,7.146,0,0,0-1.8-5.2,6.484,6.484,0,0,0-4.7-1.9,6.7,6.7,0,0,0-5,2,8.021,8.021,0,0,0-1.8,5.6v17.8h-10.3V248.2h10.3v6.1a10.876,10.876,0,0,1,4.3-4.7,12.158,12.158,0,0,1,6.7-1.7A10.849,10.849,0,0,1,1270.8,251.6Z" fill="#4c241d"/><path d="M1281.7,234.8a7.2,7.2,0,0,1,8.8,0,5.066,5.066,0,0,1,1.7,3.9,5.007,5.007,0,0,1-1.7,3.8,7.2,7.2,0,0,1-8.8,0,5.007,5.007,0,0,1-1.7-3.8A5.066,5.066,0,0,1,1281.7,234.8Zm9.5,13.3v33.5H1281V248.1Z" fill="#4c241d"/><path d="M1326.6,249.7a14.956,14.956,0,0,1,5.2,5.9,19.719,19.719,0,0,1,1.9,9.1,20,20,0,0,1-1.9,9.1,14.6,14.6,0,0,1-5.2,6,13.574,13.574,0,0,1-7.4,2.1,12.443,12.443,0,0,1-6.6-1.7,10.159,10.159,0,0,1-4-4.7v6.1h-10.3V237.2h10.3v17a9.693,9.693,0,0,1,4-4.7,11.6,11.6,0,0,1,6.6-1.7A12.44,12.44,0,0,1,1326.6,249.7Zm-16,9.1a8.44,8.44,0,0,0-2.1,6,8.029,8.029,0,0,0,2.1,5.9,6.947,6.947,0,0,0,5.3,2.2,6.662,6.662,0,0,0,5.3-2.2,10,10,0,0,0,0-12,7,7,0,0,0-5.3-2.2A8.1,8.1,0,0,0,1310.6,258.8Z" fill="#4c241d"/><path d="M1372.3,248.1v33.5H1362v-6.1a11.46,11.46,0,0,1-4.3,4.7,12.039,12.039,0,0,1-6.6,1.7,11.621,11.621,0,0,1-9.1-3.8c-2.3-2.6-3.4-6.1-3.4-10.6V248.1h10.2v18.2a7.4,7.4,0,0,0,1.8,5.3,6.184,6.184,0,0,0,4.8,1.9,6.325,6.325,0,0,0,4.9-2,8.02,8.02,0,0,0,1.8-5.6V248.1h10.2Z" fill="#4c241d"/><path d="M1401.7,250.8a14.237,14.237,0,0,1,4.8,8.4h-9.6a5.249,5.249,0,0,0-1.9-3.2,5.672,5.672,0,0,0-3.7-1.2,3.844,3.844,0,0,0-2.6.8,2.583,2.583,0,0,0-.9,2.1,2.418,2.418,0,0,0,1.6,2.3,33.412,33.412,0,0,0,5.2,1.6,51.524,51.524,0,0,1,6.3,1.8,10.518,10.518,0,0,1,4.3,3,9.274,9.274,0,0,1,.2,10.7,10.136,10.136,0,0,1-4.5,3.5,18.592,18.592,0,0,1-7,1.3c-4.5,0-8.1-1-10.9-3a12.845,12.845,0,0,1-5-8.6h9.9a4.941,4.941,0,0,0,1.8,3.3,6.619,6.619,0,0,0,4.1,1.1,3.844,3.844,0,0,0,2.6-.8,2.771,2.771,0,0,0-.8-4.6,33.923,33.923,0,0,0-5.4-1.6,39.224,39.224,0,0,1-6.1-1.7,9.934,9.934,0,0,1-4.1-2.9,7.889,7.889,0,0,1-1.7-5.5,8.957,8.957,0,0,1,3.4-7.3c2.3-1.9,5.5-2.8,9.7-2.8C1395.8,247.7,1399.2,248.7,1401.7,250.8Z" fill="#4c241d"/><path d="M1421.5,271.3v10.3h-10.6V271.3Z" fill="#4c241d"/><path d="M1452.8,251.2a15.81,15.81,0,0,1,5.5,9.8h-10.9a5.88,5.88,0,0,0-2-3.4,5.956,5.956,0,0,0-3.8-1.2,5.356,5.356,0,0,0-4.4,2.1c-1.2,1.4-1.7,3.5-1.7,6.2a9.955,9.955,0,0,0,1.7,6.2,5.491,5.491,0,0,0,4.4,2.1,5.956,5.956,0,0,0,3.8-1.2,5.581,5.581,0,0,0,2-3.4h10.9a16.01,16.01,0,0,1-5.5,9.8,16.463,16.463,0,0,1-10.9,3.6,17.508,17.508,0,0,1-8.7-2.1,15.717,15.717,0,0,1-6-6,18.842,18.842,0,0,1-2.2-9.1,18.545,18.545,0,0,1,2.1-9.1,14.227,14.227,0,0,1,6-5.9,18.17,18.17,0,0,1,8.8-2.1C1446.3,247.7,1449.9,248.8,1452.8,251.2Z" fill="#4c241d"/><path d="M1488.2,249.7a15.553,15.553,0,0,1,6.2,6,17.784,17.784,0,0,1,2.2,9.1,18.844,18.844,0,0,1-2.2,9.1,15.553,15.553,0,0,1-6.2,6,19.91,19.91,0,0,1-17.8,0,15.553,15.553,0,0,1-6.2-6,17.784,17.784,0,0,1-2.2-9.1,18.844,18.844,0,0,1,2.2-9.1,15.553,15.553,0,0,1,6.2-6,18.568,18.568,0,0,1,8.9-2.1A19.48,19.48,0,0,1,1488.2,249.7Zm-13.8,9a8.779,8.779,0,0,0-2,6.1,8.609,8.609,0,0,0,2,6.1,6.569,6.569,0,0,0,5,2.1,6.355,6.355,0,0,0,4.9-2.1,10.3,10.3,0,0,0,0-12.2,6.505,6.505,0,0,0-4.9-2.1A5.941,5.941,0,0,0,1474.4,258.7Z" fill="#4c241d"/><path d="M1510.8,271.3v10.3h-10.6V271.3Z" fill="#4c241d"/><path d="M1549.5,248.1v33.5h-10.3v-6.1a11.46,11.46,0,0,1-4.3,4.7,12.039,12.039,0,0,1-6.6,1.7,11.621,11.621,0,0,1-9.1-3.8c-2.3-2.6-3.4-6.1-3.4-10.6V248.1H1526v18.2a7.4,7.4,0,0,0,1.8,5.3,6.184,6.184,0,0,0,4.8,1.9,6.325,6.325,0,0,0,4.9-2,8.02,8.02,0,0,0,1.8-5.6V248.1h10.2Z" fill="#4c241d"/><path d="M1576.8,281.6l-10-14.2v14.2h-10.3V237.2h10.3v24.4l10-13.4h12.1l-13.5,16.7,13.8,16.7h-12.4Z" fill="#4c241d"/></g><g transform="translate(14306.781 -969.818)"><path d="M841.092,191.989a56.578,56.578,0,0,0-92.919,0,56.386,56.386,0,0,0-6.566,52.038,44.6,44.6,0,0,0,8.19,13.486l41.8,49.143a3.97,3.97,0,0,0,6.072,0l41.8-49.072a46.07,46.07,0,0,0,8.19-13.486A56.732,56.732,0,0,0,841.092,191.989Z" transform="translate(-9.721 -10.023)" fill="#ffc74c"/><g transform="translate(743.553 182.062)"><path d="M767.515,221.275h0a.367.367,0,0,0-.282.141,2.584,2.584,0,0,0-.282,1.624v5.013a6.43,6.43,0,0,1-.635,2.542,3.335,3.335,0,0,1-6-.071,5.825,5.825,0,0,1-.635-2.471q-.106-3.177,0-6.355c0-2.754,1.624-4.307,4.378-4.378H767.8a36.919,36.919,0,0,0,0-3.954c-.424-3.036,1.13-4.8,3.6-6.072a37.344,37.344,0,0,1,11.862-3.672,113.7,113.7,0,0,1,37.563.353,76.556,76.556,0,0,1,8.685,2.612,10.305,10.305,0,0,1,2.118,1.13c1.906,1.2,3.107,2.683,2.824,5.154-.141,1.412,0,2.895,0,4.448H838.4a3.914,3.914,0,0,1,4.166,3.954c.071,2.33,0,4.66,0,6.99v.494c-.353,2.259-1.977,3.742-3.954,3.6a3.909,3.909,0,0,1-3.319-3.883v-6.213a1.954,1.954,0,0,0-.071-.635.973.973,0,0,0-.212-.282c-.071-.141-.353-.212-.424-.071a.219.219,0,0,0-.071.141v40.458a6.774,6.774,0,0,1-3.883,6.566,20.1,20.1,0,0,1-2.683.847v5.86a2.715,2.715,0,0,1-2.683,2.824q-2.542.106-5.084,0a2.7,2.7,0,0,1-2.612-2.824v-6.072H785.167v5.507c0,2.33-.989,3.389-3.389,3.389h-3.742c-2.259,0-3.248-.988-3.248-3.248v-5.578a12.587,12.587,0,0,1-1.836-.282,6.864,6.864,0,0,1-5.013-6.708V222.122c0-.212.071-.494,0-.635C767.657,221.345,767.586,221.275,767.515,221.275Zm33.539-3.813H779.872a24.943,24.943,0,0,0-3.248.071,5.267,5.267,0,0,0-4.943,5.013V240.9a2.156,2.156,0,0,0,1.13,2.048,32.923,32.923,0,0,0,3.53,1.765,46.738,46.738,0,0,0,11.721,2.4,131.591,131.591,0,0,0,27.4-.141A39.761,39.761,0,0,0,827.6,244.01c1.695-.777,2.824-1.836,2.754-3.954-.141-5.86-.071-11.721-.071-17.511a4.76,4.76,0,0,0-2.048-3.813,6.277,6.277,0,0,0-3.883-1.13C816.587,217.462,808.821,217.462,801.054,217.462Zm-.141-3.813h16.522c2.118,0,2.471-.353,2.471-2.471v-1.695c0-1.977-.424-2.33-2.4-2.33h-33.75a1.5,1.5,0,0,0-1.553,1.624v2.754c0,1.624.494,2.118,2.118,2.118Zm-20.97,47.942a4.026,4.026,0,1,0-3.883-3.742A4.073,4.073,0,0,0,779.942,261.591Zm42.011,0a3.979,3.979,0,0,0,4.025-4.025,4.023,4.023,0,0,0-4.025-4.025,4.1,4.1,0,0,0-4.1,4.1A4.025,4.025,0,0,0,821.954,261.591Z" transform="translate(-759.625 -202.236)" fill="#4c241d"/></g><g transform="translate(704.945 133.6)"><path d="M810.176,384.353l-10.591-12.427-8.685,7.131,14.969,17.652a5.538,5.538,0,0,0,4.307,1.977,5.754,5.754,0,0,0,4.307-1.977l23.865-28.031-7.979-7.979Z" transform="translate(-730.21 -200.351)" fill="#ffc74c"/><path d="M850.506,167.986a79.757,79.757,0,0,0-131.188,0,79.723,79.723,0,0,0-9.32,73.5,65.174,65.174,0,0,0,11.509,19.064l36.857,43.282,8.685-7.131-37-43.494a50.548,50.548,0,0,1-9.532-15.675A68.713,68.713,0,0,1,728.5,174.34a68.54,68.54,0,0,1,112.689,0,68.651,68.651,0,0,1,7.979,63.264,51.079,51.079,0,0,1-9.532,15.6l-27.4,32.126,7.979,7.979,27.96-32.832a61.961,61.961,0,0,0,11.509-18.993A79.28,79.28,0,0,0,850.506,167.986Z" transform="translate(-704.945 -133.6)" fill="#4c241d"/></g></g></g></svg>