<svg xmlns="http://www.w3.org/2000/svg" width="29.834" height="37" viewBox="0 0 29.834 37">
  <g id="Group_1615" data-name="Group 1615" transform="translate(-92 -105)">
    <path id="Path_293" data-name="Path 293" d="M360.029,153.666a10.54,10.54,0,0,0-17.329,0,10.539,10.539,0,0,0-1.228,9.714A8.258,8.258,0,0,0,343,165.894l7.8,9.165a.742.742,0,0,0,1.13,0l7.8-9.164a8.265,8.265,0,0,0,1.524-2.512A10.544,10.544,0,0,0,360.029,153.666Z" transform="translate(-244.446 -39.646)" fill="#ffc74c"/>
    <g id="Group_1609" data-name="Group 1609" transform="translate(99.188 114.058)">
      <path id="Path_294" data-name="Path 294" d="M363.767,187.39h0a.065.065,0,0,0-.048.031.5.5,0,0,0-.049.306c0,.069,0,.138,0,.207,0,.2,0,.4,0,.595,0,.046,0,.091-.005.137a1.09,1.09,0,0,1-.121.473.625.625,0,0,1-1.121-.011,1.076,1.076,0,0,1-.118-.457c-.016-.394-.008-.789,0-1.183a.751.751,0,0,1,.819-.811h.695a5.883,5.883,0,0,0-.005-.74,1.056,1.056,0,0,1,.672-1.135,6.712,6.712,0,0,1,2.214-.68,21.032,21.032,0,0,1,7.007.071,13.325,13.325,0,0,1,1.622.488,1.883,1.883,0,0,1,.39.209.944.944,0,0,1,.528.956,8.228,8.228,0,0,0-.005.831h.734a.731.731,0,0,1,.776.739c.013.433,0,.867,0,1.3a.764.764,0,0,1-.745.758.727.727,0,0,1-.619-.72c-.006-.2-.006-.4-.006-.595s0-.374,0-.561a.3.3,0,0,0-.019-.124.361.361,0,0,0-.034-.056c-.017-.025-.06-.045-.083-.014a.05.05,0,0,0-.007.031q0,.1,0,.206,0,3.669,0,7.339a1.282,1.282,0,0,1-.728,1.232,3.111,3.111,0,0,1-.506.152c0,.061,0,.145,0,.228,0,.29.005.579,0,.869a.506.506,0,0,1-.5.532c-.314.013-.629.013-.942,0a.5.5,0,0,1-.486-.525c-.006-.308,0-.616,0-.924v-.206h-6.043c0,.347,0,.685,0,1.022,0,.441-.19.633-.627.635q-.351,0-.7,0c-.425,0-.6-.181-.6-.611,0-.344,0-.687,0-1.038-.125-.019-.235-.027-.341-.053a1.289,1.289,0,0,1-.933-1.256c0-.974,0-1.947,0-2.921q0-.3,0-.6v-3.982a.329.329,0,0,0,0-.119A.048.048,0,0,0,363.767,187.39Zm6.268-.7H366.08c-.2,0-.407-.007-.61.009a.968.968,0,0,0-.918.938c-.006,1.14,0,2.28,0,3.42a.411.411,0,0,0,.213.384,5.125,5.125,0,0,0,.66.325,8.263,8.263,0,0,0,2.183.442,24.23,24.23,0,0,0,5.11-.032,7.381,7.381,0,0,0,2.269-.555.739.739,0,0,0,.52-.738c-.021-1.09-.007-2.181-.013-3.271a.863.863,0,0,0-.379-.706,1.169,1.169,0,0,0-.73-.216Q372.208,186.689,370.036,186.686Zm-.034-.718h3.086c.394,0,.455-.062.455-.464q0-.157,0-.314c0-.366-.076-.441-.445-.441h-6.153c-.049,0-.1,0-.148,0a.29.29,0,0,0-.3.309c-.005.172,0,.345,0,.517,0,.306.086.39.4.39Zm-3.913,8.95a.751.751,0,1,0-.726-.7A.754.754,0,0,0,366.089,194.918Zm7.839,0a.751.751,0,1,0-.761-.742A.75.75,0,0,0,373.929,194.918Z" transform="translate(-362.291 -183.864)" fill="#4c241d"/>
    </g>
    <g id="Group_1610" data-name="Group 1610" transform="translate(92 105)">
      <path id="Path_295" data-name="Path 295" d="M397.246,346.523,395.27,344.2l-1.622,1.329,2.8,3.288a1.048,1.048,0,0,0,1.6,0l4.457-5.235-1.487-1.487Z" transform="translate(-382.328 -312.189)" fill="#ffc74c"/>
      <path id="Path_296" data-name="Path 296" d="M334.9,121.535a14.889,14.889,0,0,0-24.479,0,14.887,14.887,0,0,0-1.734,13.721,11.667,11.667,0,0,0,2.153,3.552l6.876,8.076,1.622-1.329-6.906-8.111a9.641,9.641,0,0,1-1.781-2.922,12.8,12.8,0,0,1,1.5-11.794,12.791,12.791,0,0,1,21.029,0,12.806,12.806,0,0,1,1.493,11.8,9.624,9.624,0,0,1-1.778,2.916l-5.11,6,1.487,1.487,5.212-6.122a11.671,11.671,0,0,0,2.152-3.548A14.893,14.893,0,0,0,334.9,121.535Z" transform="translate(-307.74 -115.124)" fill="#4c241d"/>
    </g>
  </g>
</svg>
