<svg xmlns="http://www.w3.org/2000/svg" width="50" height="50" viewBox="0 0 50 50">
  <g id="Group_1503" data-name="Group 1503" transform="translate(-594 -533)">
    <g id="Rectangle_600" data-name="Rectangle 600" transform="translate(594 533)" fill="#fff" stroke="#707070" stroke-width="1" opacity="0.003">
      <rect width="50" height="50" stroke="none"/>
      <rect x="0.5" y="0.5" width="49" height="49" fill="none"/>
    </g>
    <g id="luggage_1_" data-name="luggage (1)" transform="translate(589 535)">
      <g id="Group_1502" data-name="Group 1502" transform="translate(8)">
        <g id="Group_1501" data-name="Group 1501" transform="translate(0)">
          <path id="Path_224" data-name="Path 224" d="M30.233,5.367h-4.6V.767A.767.767,0,0,0,24.867,0H17.2a.767.767,0,0,0-.767.767v4.6h-4.6A3.838,3.838,0,0,0,8,9.2V39.1a3.838,3.838,0,0,0,3.833,3.833v2.3A.767.767,0,0,0,12.6,46h3.067a.767.767,0,0,0,.767-.767v-2.3h9.2v2.3A.767.767,0,0,0,26.4,46h3.067a.767.767,0,0,0,.767-.767v-2.3A3.838,3.838,0,0,0,34.067,39.1V9.2A3.838,3.838,0,0,0,30.233,5.367ZM27.167,6.9h3.067a2.3,2.3,0,0,1,2.159,1.533H27.167Zm-9.2-5.367H24.1V2.3H17.967Zm0,2.3H24.1V5.367H17.967ZM11.833,6.9H14.9V8.433H9.674A2.3,2.3,0,0,1,11.833,6.9ZM14.9,44.467H13.367V42.933H14.9Zm0-3.067H11.833a2.3,2.3,0,0,1-2.159-1.533H14.9Zm13.8,3.067H27.167V42.933H28.7ZM30.233,41.4H27.167V39.867h5.226A2.3,2.3,0,0,1,30.233,41.4Zm2.3-3.067H26.4a.767.767,0,0,0-.767.767v2.3h-9.2V39.1a.767.767,0,0,0-.767-.767H9.533V9.967h6.133a.767.767,0,0,0,.767-.767V6.9h9.2V9.2a.767.767,0,0,0,.767.767h6.133Z" transform="translate(-8)" fill="#9b9898"/>
          <path id="Path_225" data-name="Path 225" d="M123.833,128h-3.067a.767.767,0,0,0-.767.767v23a.767.767,0,0,0,.767.767h3.067a.767.767,0,0,0,.767-.767v-23A.767.767,0,0,0,123.833,128Zm-.767,23h-1.533V129.533h1.533Z" transform="translate(-109.267 -115.733)" fill="#9b9898"/>
          <path id="Path_226" data-name="Path 226" d="M184,128.767v23a.767.767,0,0,0,.767.767h3.067a.767.767,0,0,0,.767-.767v-23a.767.767,0,0,0-.767-.767h-3.067A.767.767,0,0,0,184,128.767Zm1.533.767h1.533V151h-1.533Z" transform="translate(-167.133 -115.733)" fill="#9b9898"/>
          <path id="Path_227" data-name="Path 227" d="M59.833,128H56.767a.767.767,0,0,0-.767.767v23a.767.767,0,0,0,.767.767h3.067a.767.767,0,0,0,.767-.767v-23A.767.767,0,0,0,59.833,128Zm-.767,23H57.533V129.533h1.533Z" transform="translate(-51.4 -115.733)" fill="#9b9898"/>
          <path id="Path_228" data-name="Path 228" d="M309.8,99.577V88.767a.767.767,0,0,0-.767-.767h-9.2a.767.767,0,0,0-.767.767v10.81A3.84,3.84,0,0,0,296,103.333v15.333a3.838,3.838,0,0,0,3.833,3.833v1.533a.767.767,0,0,0,.767.767h1.533a.767.767,0,0,0,.767-.767V122.5h3.067v1.533a.767.767,0,0,0,.767.767h1.533a.767.767,0,0,0,.767-.767V122.5a3.838,3.838,0,0,0,3.833-3.833V103.333A3.84,3.84,0,0,0,309.8,99.577Zm-9.2-10.043h7.667V90.3H300.6Zm0,2.3h7.667V99.5H307.5V95.667a.767.767,0,0,0-.767-.767h-4.6a.767.767,0,0,0-.767.767V99.5H300.6Zm2.3,5.367v-.767h3.067V97.2Zm3.067,1.533V99.5H302.9v-.767Zm5.367,19.933a2.3,2.3,0,0,1-2.3,2.3h-9.2a2.3,2.3,0,0,1-2.3-2.3V115.6h3.833v.767a.767.767,0,0,0,.767.767h4.6a.767.767,0,0,0,.767-.767V115.6h3.833ZM302.9,115.6v-1.533h3.067V115.6Zm8.433-1.533H307.5V113.3a.767.767,0,0,0-.767-.767h-4.6a.767.767,0,0,0-.767.767v.767h-3.833v-6.133h3.833v.767a.767.767,0,0,0,.767.767h4.6a.767.767,0,0,0,.767-.767v-.767h3.833Zm-8.433-6.133V106.4h3.067v1.533Zm8.433-1.533H307.5v-.767a.767.767,0,0,0-.767-.767h-4.6a.767.767,0,0,0-.767.767v.767h-3.833v-3.067a2.3,2.3,0,0,1,2.3-2.3h9.2a2.3,2.3,0,0,1,2.3,2.3Z" transform="translate(-268.4 -79.567)" fill="#9b9898"/>
        </g>
      </g>
    </g>
  </g>
</svg>
