<?xml version="1.0" encoding="utf-8"?>
<!-- Generator: Adobe Illustrator 19.0.0, SVG Export Plug-In . SVG Version: 6.00 Build 0)  -->
<svg version="1.1" id="Capa_1" xmlns="http://www.w3.org/2000/svg" xmlns:xlink="http://www.w3.org/1999/xlink" x="0px" y="0px"
	 viewBox="-49 141 512 512" style="enable-background:new -49 141 512 512;" xml:space="preserve">
<style type="text/css">
	.st0{fill:#EE4134;stroke:#EE4134;stroke-width:2;stroke-miterlimit:10;}
</style>
<g>
	<g>
		<path class="st0" d="M206.1,154C72.3,154-36,262.3-36,396.1C-36,528.8,71.3,640,206.1,640C339.6,640,450,530,450,396.1
			C450,261.1,338.7,154,206.1,154z M206.1,611.7C88.3,611.7-7.7,514.9-7.7,396.1c0-117.8,96-213.8,213.8-213.8
			c118.8,0,215.7,96,215.7,213.8C421.7,514.9,324.9,611.7,206.1,611.7z"/>
	</g>
</g>
<g>
	<g>
		<path class="st0" d="M206.1,239.4c-86.4,0-156.6,70.3-156.6,156.6c0,86.7,70.1,158.5,156.6,158.5c35,0,70.4-11.8,97.1-32.3
			c6.2-4.8,7.4-13.7,2.6-20c-4.8-6.2-13.7-7.4-20-2.6c-21.9,16.8-50.9,26.6-79.8,26.6c-70.7,0-128.1-58.5-128.1-130.2
			c0-70.7,57.5-128.3,128.1-128.3c71.7,0,130,57.7,130,128.3v14.2c0,15.7-12.8,28.5-28.5,28.5s-28.5-12.8-28.5-28.5
			c0-7.1,0-63.8,0-71.2c0-7.9-6.4-14.2-14.2-14.2s-14.2,6.4-14.2,14.2v0.9c-12.9-9.8-28.4-15.1-44.6-15.1
			c-39.3,0-71.2,31.9-71.2,71.2s31.9,71.2,71.2,71.2c21.3,0,40.9-9.1,54.8-24.5c10.3,14.8,27.4,24.5,46.8,24.5c31.4,0,57-25.5,57-57
			v-14.2C364.6,309.4,292.6,239.4,206.1,239.4z M206.1,439c-23.6,0-42.7-19.4-42.7-42.9c0-23.6,19.2-42.9,42.7-42.9
			c24.2,0,44.6,19.8,44.6,42.9C250.7,419.2,230.2,439,206.1,439z"/>
	</g>
</g>
</svg>
