<svg xmlns="http://www.w3.org/2000/svg" width="32" height="32" viewBox="0 0 32 32">
  <g id="Group_14" data-name="Group 14" transform="translate(-547 -373)">
    <circle id="Ellipse_23" data-name="Ellipse 23" cx="16" cy="16" r="16" transform="translate(547 373)" fill="#ee3824"/>
    <g id="smartphone" transform="translate(443.308 377)">
      <g id="Group_13" data-name="Group 13" transform="translate(113.692)">
        <path id="Path_6" data-name="Path 6" d="M124.172,0H116.2a2.505,2.505,0,0,0-2.507,2.46V21.143a2.482,2.482,0,0,0,2.483,2.457l7.986-.009a2.466,2.466,0,0,0,2.464-2.458l.012-18.675A2.461,2.461,0,0,0,124.172,0Zm-5.138,1.475h2.313a.369.369,0,0,1,0,.737h-2.313a.369.369,0,1,1,0-.737Zm-1.39.117a.382.382,0,0,1,.522,0,.37.37,0,0,1-.26.631.378.378,0,0,1-.262-.109.372.372,0,0,1,0-.522Zm2.472,21.277a1.1,1.1,0,1,1,1.1-1.1A1.1,1.1,0,0,1,120.116,22.869Zm5.376-2.957H114.983V3.5h10.509V19.912Z" transform="translate(-113.692)" fill="#fff"/>
      </g>
    </g>
  </g>
</svg>
