<svg xmlns="http://www.w3.org/2000/svg" width="50" height="50" viewBox="0 0 50 50">
  <g id="Group_1506" data-name="Group 1506" transform="translate(-723 -528)">
    <g id="Rectangle_603" data-name="Rectangle 603" transform="translate(723 528)" fill="#fff" stroke="#707070" stroke-width="1" opacity="0">
      <rect width="50" height="50" stroke="none"/>
      <rect x="0.5" y="0.5" width="49" height="49" fill="none"/>
    </g>
    <g id="outlet" transform="translate(728 532)">
      <path id="Path_215" data-name="Path 215" d="M269.36,0H256.569a3.311,3.311,0,0,0-3.307,3.307v11.88a3.31,3.31,0,0,0,3.307,3.307H269.36a3.31,3.31,0,0,0,3.307-3.307V3.307A3.31,3.31,0,0,0,269.36,0Zm1.658,15.187a1.66,1.66,0,0,1-1.658,1.658H256.569a1.66,1.66,0,0,1-1.658-1.658V3.307a1.66,1.66,0,0,1,1.658-1.658H269.36a1.66,1.66,0,0,1,1.658,1.658Zm0,0" transform="translate(-232.379)" fill="#9b9898"/>
      <path id="Path_216" data-name="Path 216" d="M306.035,41.418a5.832,5.832,0,1,0,5.832,5.832A5.838,5.838,0,0,0,306.035,41.418Zm0,10.015a4.183,4.183,0,1,1,4.183-4.183A4.188,4.188,0,0,1,306.035,51.433Zm0,0" transform="translate(-275.45 -38.003)" fill="#9b9898"/>
      <path id="Path_217" data-name="Path 217" d="M338.5,91.871a.824.824,0,0,0-.825.825V94.39a.825.825,0,1,0,1.649,0V92.7A.824.824,0,0,0,338.5,91.871Zm0,0" transform="translate(-309.833 -84.296)" fill="#9b9898"/>
      <path id="Path_218" data-name="Path 218" d="M385.012,91.871a.824.824,0,0,0-.825.825V94.39a.825.825,0,1,0,1.649,0V92.7A.824.824,0,0,0,385.012,91.871Zm0,0" transform="translate(-352.51 -84.296)" fill="#9b9898"/>
      <path id="Path_219" data-name="Path 219" d="M34.245,105.692H24.222a2.378,2.378,0,0,1-2.375-2.375V96.636a3.53,3.53,0,0,0-7.061,0V103.3a2.4,2.4,0,0,1-4.793,0V96.419a1.945,1.945,0,0,0,1.848-1.941V93.6h.04a4.559,4.559,0,0,0,4.554-4.554V83.956h1.009a.9.9,0,0,0,.894-.894V81.5a2.293,2.293,0,0,0-2.29-2.29H14.474V73.117a2.14,2.14,0,0,0-4.281,0V79.2H8.145V73.117a2.14,2.14,0,0,0-4.281,0V79.2H2.29A2.293,2.293,0,0,0,0,81.5v1.566a.9.9,0,0,0,.894.894H1.9v5.093A4.559,4.559,0,0,0,6.456,93.6H6.5v.876a1.945,1.945,0,0,0,1.848,1.941V103.3a4.046,4.046,0,0,0,8.091,0V96.636a1.881,1.881,0,0,1,3.763,0v6.681a4.029,4.029,0,0,0,4.024,4.024H34.245a.825.825,0,0,0,0-1.649Zm-22.4-32.575a.491.491,0,0,1,.983,0V79.2h-.983Zm-6.329,0a.491.491,0,0,1,.983,0V79.2H5.513ZM3.552,89.049V83.956H7.968a.825.825,0,1,0,0-1.649H1.649V81.5a.642.642,0,0,1,.641-.641H16.048a.642.642,0,0,1,.641.641v.811H14.564a.825.825,0,1,0,0,1.649h.223v5.093a2.908,2.908,0,0,1-2.9,2.9H6.456A2.908,2.908,0,0,1,3.552,89.049Zm4.594,5.43V93.6h2.048v.876a.294.294,0,0,1-.293.294H8.439A.294.294,0,0,1,8.145,94.479Zm0,0" transform="translate(0 -65.124)" fill="#9b9898"/>
      <path id="Path_220" data-name="Path 220" d="M127.457,210.036h0a.825.825,0,1,0-.826-.825A.824.824,0,0,0,127.459,210.036Zm0,0" transform="translate(-116.191 -191.204)" fill="#9b9898"/>
    </g>
  </g>
</svg>
