<svg xmlns="http://www.w3.org/2000/svg" width="32" height="32" viewBox="0 0 32 32"><g transform="translate(-98 -2201)"><circle cx="16" cy="16" r="16" transform="translate(98 2201)" fill="#fff"/><g transform="translate(106.907 2209.907)"><path d="M14.15,10.1a8.735,8.735,0,0,1-2.743-.437,1.254,1.254,0,0,0-1.219.257l-1.73,1.306a9.56,9.56,0,0,1-4.3-4.3L5.427,5.242a1.243,1.243,0,0,0,.306-1.26,8.748,8.748,0,0,1-.439-2.748A1.236,1.236,0,0,0,4.06,0H1.234A1.236,1.236,0,0,0,0,1.234a14.166,14.166,0,0,0,14.15,14.15,1.236,1.236,0,0,0,1.234-1.234V11.333A1.236,1.236,0,0,0,14.15,10.1Z" fill="#ffc74c"/></g></g></svg>