<svg xmlns="http://www.w3.org/2000/svg" width="39" height="39" viewBox="0 0 39 39">
  <g id="phone-i" transform="translate(-664 -447)">
    <g id="Group_1619" data-name="Group 1619" transform="translate(-5894 96)">
      <circle id="Ellipse_26" data-name="Ellipse 26" cx="19.5" cy="19.5" r="19.5" transform="translate(6558 351)" fill="#ffc74c"/>
      <g id="Group_1618" data-name="Group 1618" transform="translate(6568.855 360.75)">
        <path id="Path_306" data-name="Path 306" d="M17.245,12.307a10.646,10.646,0,0,1-3.343-.533,1.528,1.528,0,0,0-1.486.313l-2.108,1.591A11.651,11.651,0,0,1,5.069,8.442L6.614,6.389a1.516,1.516,0,0,0,.373-1.536A10.662,10.662,0,0,1,6.452,1.5,1.506,1.506,0,0,0,4.948,0H1.5A1.506,1.506,0,0,0,0,1.5,17.265,17.265,0,0,0,17.245,18.75a1.506,1.506,0,0,0,1.5-1.5V13.812a1.506,1.506,0,0,0-1.5-1.505Z"/>
      </g>
    </g>
  </g>
</svg>
