<svg xmlns="http://www.w3.org/2000/svg" width="20.454" height="20.454" viewBox="0 0 20.454 20.454">
  <g id="phone_1_" data-name="phone (1)" transform="translate(0 0)">
    <g id="Group_1579" data-name="Group 1579" transform="translate(14.418 12.04)">
      <g id="Group_1578" data-name="Group 1578">
        <path id="Path_281" data-name="Path 281" d="M366.426,304.444l-2.542-2.543a1.842,1.842,0,0,0-2.543,0l-.424.424L366,307.41l.424-.424A1.8,1.8,0,0,0,366.426,304.444Z" transform="translate(-360.917 -301.393)"/>
      </g>
    </g>
    <g id="Group_1581" data-name="Group 1581" transform="translate(0 1.815)">
      <g id="Group_1580" data-name="Group 1580">
        <path id="Path_282" data-name="Path 282" d="M13.547,57.425a1.348,1.348,0,0,1-1.787-.092L6.734,52.3a1.349,1.349,0,0,1-.092-1.787L1.569,45.443a6.47,6.47,0,0,0,.312,8.786l7.954,7.957a6.433,6.433,0,0,0,8.786.311Z" transform="translate(0 -45.443)"/>
      </g>
    </g>
    <g id="Group_1583" data-name="Group 1583" transform="translate(2.382 0)">
      <g id="Group_1582" data-name="Group 1582">
        <path id="Path_283" data-name="Path 283" d="M65.121,3.051,62.578.509a1.842,1.842,0,0,0-2.543,0l-.424.424L64.7,6.017l.424-.424A1.8,1.8,0,0,0,65.121,3.051Z" transform="translate(-59.612 0)"/>
      </g>
    </g>
  </g>
</svg>
