<svg xmlns="http://www.w3.org/2000/svg" width="50" height="50" viewBox="0 0 50 50">
  <g id="Group_1508" data-name="Group 1508" transform="translate(-906 -533)">
    <g id="Rectangle_604" data-name="Rectangle 604" transform="translate(906 533)" fill="#fff" stroke="#707070" stroke-width="1" opacity="0">
      <rect width="50" height="50" stroke="none"/>
      <rect x="0.5" y="0.5" width="49" height="49" fill="none"/>
    </g>
    <g id="Group_1526" data-name="Group 1526" transform="translate(327.847 -747)">
      <g id="seat_2_" data-name="seat (2)" transform="translate(582 1283)">
        <g id="Group_1527" data-name="Group 1527" transform="translate(0 0)">
          <g id="Group_1526-2" data-name="Group 1526">
            <path id="Path_243" data-name="Path 243" d="M6.571,32.869Z" transform="translate(-6.516 -30.089)" fill="#9b9898"/>
            <path id="Path_244" data-name="Path 244" d="M45.744,31.259a6.223,6.223,0,0,0-4.966-1.546l-19.19,2.519-.757-7.345a41.47,41.47,0,0,0-2.806-11.815l-.677-1.7a5.47,5.47,0,0,0-2.8-2.946,5.379,5.379,0,0,0,.2-3.9q-.006-.019-.013-.037A7.13,7.13,0,0,0,8.255,0,2.285,2.285,0,0,0,5.978,2.78l6.371,27.8a.637.637,0,0,0,1.243-.277L9.236,10.733A1.288,1.288,0,0,1,10.52,9.166l1.825.037a4.213,4.213,0,0,1,1.094.168l.052.016a4.2,4.2,0,0,1,2.673,2.461l.677,1.7A40.2,40.2,0,0,1,19.562,25v.01l.761,7.386-1.209.159a3.582,3.582,0,0,0-6.373,2.911l0,.011L14.3,41.957a1.728,1.728,0,0,0,1.685,1.327H40.465a3.308,3.308,0,0,0,3.3-3.26h1.487a3.069,3.069,0,0,0,2.951-3.169A7.413,7.413,0,0,0,45.744,31.259ZM13.331,8.035a5.5,5.5,0,0,0-.96-.1l-1.825-.037a2.543,2.543,0,0,0-1.836.722L7.22,2.5A1.011,1.011,0,0,1,8.229,1.273a5.859,5.859,0,0,1,5.323,3.672A4.112,4.112,0,0,1,13.331,8.035Zm2.658,33.976h0a.458.458,0,0,1-.446-.352l-1.558-6.474a2.309,2.309,0,0,1,4.509-.994l1.818,7.819H15.989Zm29.267-3.26H38.074a.637.637,0,1,0,0,1.274H42.5a2.033,2.033,0,0,1-2.03,1.986H21.62l-.462-1.986H35.111a.637.637,0,1,0,0-1.274H20.861l-1.126-4.842c-.011-.049-.023-.1-.036-.145l21.244-2.788a4.965,4.965,0,0,1,3.96,1.241,6.142,6.142,0,0,1,2.03,4.64A1.8,1.8,0,0,1,45.256,38.751Z" transform="translate(-5.923 0)" fill="#9b9898"/>
          </g>
        </g>
      </g>
      <g id="Group_1538" data-name="Group 1538" transform="translate(600.853 1287.667)">
        <g id="Group_1532" data-name="Group 1532">
          <path id="Path_246" data-name="Path 246" d="M65.736,61.9,67.765,59.2l1.082.812L67.58,61.7A12.873,12.873,0,0,1,79.062,73.181l1.689-1.267L81.562,73l-2.705,2.029a.675.675,0,0,1-.811,0L75.34,73l.811-1.082,1.525,1.144A11.508,11.508,0,0,0,67.7,63.085l1.144,1.525-1.082.812-2.029-2.705A.677.677,0,0,1,65.736,61.9Z" transform="translate(-65.601 -59.199)" fill="#9b9898"/>
        </g>
      </g>
      <g id="Group_1540" data-name="Group 1540" transform="translate(598.232 1295.681)">
        <g id="Group_1534" data-name="Group 1534">
          <path id="Path_247" data-name="Path 247" d="M176.1,159.9l-1.285.423a10.125,10.125,0,0,0-9.64-6.975V152A11.475,11.475,0,0,1,176.1,159.9Z" transform="translate(-165.172 -152)" fill="#9b9898"/>
        </g>
      </g>
      <g id="Group_1539" data-name="Group 1539" transform="translate(607.64 1307.179)">
        <g id="Group_1536" data-name="Group 1536" transform="translate(0)">
          <path id="Path_248" data-name="Path 248" d="M159.135,288h1.353a11.436,11.436,0,0,1-.836,4.312L158.4,291.8A10.1,10.1,0,0,0,159.135,288Z" transform="translate(-158.398 -288)" fill="#9b9898"/>
        </g>
      </g>
    </g>
  </g>
</svg>
