<svg xmlns="http://www.w3.org/2000/svg" width="50" height="50" viewBox="0 0 50 50">
  <g id="Group_1510" data-name="Group 1510" transform="translate(-943 -530)">
    <g id="Rectangle_606" data-name="Rectangle 606" transform="translate(943 530)" fill="#fff" stroke="#707070" stroke-width="1" opacity="0.002">
      <rect width="50" height="50" stroke="none"/>
      <rect x="0.5" y="0.5" width="49" height="49" fill="none"/>
    </g>
    <g id="XMLID_326_" transform="translate(945.415 494.259)">
      <path id="XMLID_331_" d="M350.5,49.021a3.64,3.64,0,1,0-3.64-3.639A3.64,3.64,0,0,0,350.5,49.021Z" transform="translate(-315.525 0)" fill="#9b9898"/>
      <path id="XMLID_330_" d="M297.258,142.827l-5.192-11.374a1.629,1.629,0,0,0-1.56-.887H284.5a1.631,1.631,0,0,0-1.561.888l-5.191,11.374a1.556,1.556,0,1,0,2.832,1.293l2.51-5.5v5.925c0,.01-.005.019-.005.03V158a1.868,1.868,0,1,0,3.736,0V146.871h1.364V158a1.868,1.868,0,1,0,3.736,0V144.575c0-.008,0-.014,0-.022V138.62l2.511,5.5a1.557,1.557,0,1,0,2.832-1.293Z" transform="translate(-252.527 -80.8)" fill="#9b9898"/>
      <path id="XMLID_329_" d="M72.887,49.021a3.64,3.64,0,1,0-3.641-3.639A3.639,3.639,0,0,0,72.887,49.021Z" transform="translate(-62.99 0)" fill="#9b9898"/>
      <path id="XMLID_328_" d="M14.46,131.337a1.547,1.547,0,0,0-1.389-.9H6.719a1.542,1.542,0,0,0-1.386.9L.141,142.711A1.556,1.556,0,1,0,2.973,144l1.616-3.539-1.407,6.623A.755.755,0,0,0,3.92,148H5.479v9.888a1.868,1.868,0,1,0,3.736,0V148h1.364v9.888a1.868,1.868,0,1,0,3.736,0V148h1.554a.756.756,0,0,0,.739-.912l-1.41-6.639L16.82,144a1.556,1.556,0,1,0,2.832-1.293Z" transform="translate(0 -80.684)" fill="#9b9898"/>
      <path id="XMLID_327_" d="M236.824,71.315a1.246,1.246,0,0,0-1.246,1.246v29.607a1.246,1.246,0,0,0,2.492,0V72.561A1.246,1.246,0,0,0,236.824,71.315Z" transform="translate(-214.296 -26.902)" fill="#9b9898"/>
    </g>
  </g>
</svg>
