<?xml version="1.0" encoding="utf-8"?>
<!-- Generator: Adobe Illustrator 19.0.0, SVG Export Plug-In . SVG Version: 6.00 Build 0)  -->
<svg version="1.1" id="Layer_1" xmlns="http://www.w3.org/2000/svg" xmlns:xlink="http://www.w3.org/1999/xlink" x="0px" y="0px"
	 viewBox="-19 209 450 376" style="enable-background:new -19 209 450 376;" xml:space="preserve">
<style type="text/css">
	.st0{fill:#EE4134;stroke:#EE4134;stroke-width:7;stroke-miterlimit:10;}
</style>
<g>
	<g>
		<path class="st0" d="M385.3,272.2h-89.2v-17.8c0-19.7-16-35.7-35.7-35.7h-107c-19.7,0-35.7,16-35.7,35.7v17.8H28.7
			C9,272.2-7,288.2-7,307.8v231.8c0,19.7,16,35.7,35.7,35.7h356.7c19.7,0,35.7-16,35.7-35.7V307.8C421,288.2,405,272.2,385.3,272.2z
			 M135.7,254.3c0-9.8,8-17.8,17.8-17.8h107c9.8,0,17.8,8,17.8,17.8v17.8H135.7V254.3z M403.2,539.7c0,9.8-8,17.8-17.8,17.8H28.7
			c-9.8,0-17.8-8-17.8-17.8V409.9c5.3,3.1,11.3,5,17.8,5h142.7v26.8c0,4.9,4,8.9,8.9,8.9h53.5c4.9,0,8.9-4,8.9-8.9v-26.8h142.7
			c6.5,0,12.6-1.9,17.8-5L403.2,539.7L403.2,539.7z M189.2,432.7V397h35.7v35.7H189.2z M403.2,379.2c0,9.8-8,17.8-17.8,17.8H242.7
			v-8.9c0-4.9-4-8.9-8.9-8.9h-53.5c-4.9,0-8.9,4-8.9,8.9v8.9H28.7c-9.8,0-17.8-8-17.8-17.8v-71.3c0-9.8,8-17.8,17.8-17.8h356.7
			c9.8,0,17.8,8,17.8,17.8V379.2z"/>
	</g>
</g>
</svg>
