<svg xmlns="http://www.w3.org/2000/svg" width="40" height="40" viewBox="0 0 40 40">
  <g id="Group_1495" data-name="Group 1495" transform="translate(-1063 -2861)">
    <circle id="Ellipse_19" data-name="Ellipse 19" cx="20" cy="20" r="20" transform="translate(1063 2861)" fill="none"/>
    <g id="twitter_2_" data-name="twitter (2)" transform="translate(1074 2826)">
      <g id="Group_1419" data-name="Group 1419" transform="translate(0 48)">
        <path id="Path_182" data-name="Path 182" d="M17.548,49.688a7.5,7.5,0,0,1-2.073.568,3.577,3.577,0,0,0,1.583-1.988,7.189,7.189,0,0,1-2.281.871A3.6,3.6,0,0,0,8.554,51.6a3.7,3.7,0,0,0,.083.82,10.183,10.183,0,0,1-7.415-3.763,3.6,3.6,0,0,0,1.106,4.808A3.553,3.553,0,0,1,.7,53.021v.039A3.614,3.614,0,0,0,3.584,56.6a3.591,3.591,0,0,1-.943.118,3.181,3.181,0,0,1-.681-.061,3.632,3.632,0,0,0,3.362,2.506A7.229,7.229,0,0,1,.861,60.693,6.738,6.738,0,0,1,0,60.643a10.128,10.128,0,0,0,5.519,1.614A10.169,10.169,0,0,0,15.758,52.021c0-.159-.005-.313-.013-.465A7.177,7.177,0,0,0,17.548,49.688Z" transform="translate(0 -48)" fill="#fff"/>
      </g>
    </g>
  </g>
</svg>
