<?xml version="1.0" encoding="utf-8"?>
<!-- Generator: Adobe Illustrator 19.0.0, SVG Export Plug-In . SVG Version: 6.00 Build 0)  -->
<svg version="1.1" id="Capa_1" xmlns="http://www.w3.org/2000/svg" xmlns:xlink="http://www.w3.org/1999/xlink" x="0px" y="0px"
	 viewBox="-30 155.1 413 482.9" style="enable-background:new -30 155.1 413 482.9;" xml:space="preserve">
<style type="text/css">
	.st0{fill:#EE4134;stroke:#EE4134;stroke-width:2;stroke-miterlimit:10;}
</style>
<g>
	<g>
		<path class="st0" d="M175.7,414.8c0.5,0,1,0,1.6,0c0.2,0,0.4,0,0.6,0c0.3,0,0.7,0,1,0c28.5-0.5,51.5-10.5,68.5-29.6
			c37.4-42.2,31.2-114.5,30.5-121.4c-2.4-51.8-26.9-76.6-47.1-88.1c-15.1-8.6-32.6-13.3-52.3-13.7h-0.7c-0.1,0-0.3,0-0.4,0h-0.6
			c-10.8,0-32,1.7-52.3,13.3c-20.4,11.6-45.3,36.3-47.7,88.5c-0.7,6.9-6.9,79.2,30.5,121.4C124.3,404.3,147.3,414.3,175.7,414.8z
			 M102.8,266.2c0-0.3,0.1-0.6,0.1-0.8c3.2-69.7,52.7-77.1,73.8-77.1h0.4c0.2,0,0.5,0,0.8,0c26.2,0.6,70.8,11.3,73.8,77.1
			c0,0.3,0,0.6,0.1,0.8c0.1,0.7,6.9,66.8-24,101.5c-12.2,13.8-28.6,20.6-50,20.8c-0.2,0-0.3,0-0.5,0l0,0c-0.2,0-0.3,0-0.5,0
			c-21.4-0.2-37.8-7-49.9-20.8C96.1,333.2,102.7,266.8,102.8,266.2z"/>
		<path class="st0" d="M377,534.7c0-0.1,0-0.2,0-0.3c0-0.8-0.1-1.6-0.1-2.4c-0.6-19.2-1.8-64.2-44-78.6c-0.3-0.1-0.7-0.2-1-0.3
			c-43.8-11.2-80.3-36.4-80.6-36.7c-5.9-4.2-14.1-2.7-18.3,3.2c-4.2,5.9-2.7,14.1,3.2,18.3c1.7,1.2,40.3,28.1,88.7,40.5
			c22.6,8.1,25.2,32.3,25.8,54.4c0,0.9,0,1.7,0.1,2.4c0.1,8.7-0.5,22.3-2,30c-15.7,8.9-77.4,39.8-171.3,39.8
			C84,605,21.9,574,6.1,565.1c-1.6-7.8-2.2-21.3-2-30c0-0.8,0.1-1.6,0.1-2.4c0.7-22.2,3.2-46.3,25.8-54.4
			c48.4-12.4,87.1-39.4,88.7-40.5c5.9-4.2,7.4-12.3,3.2-18.3c-4.2-5.9-12.3-7.4-18.3-3.2C103.3,416.5,67,441.8,23,453
			c-0.4,0.1-0.7,0.2-1,0.3c-42.2,14.5-43.4,59.5-44,78.6c0,0.9,0,1.7-0.1,2.4c0,0.1,0,0.2,0,0.3c-0.1,5.1-0.2,31,5,44
			c1,2.5,2.7,4.7,5.1,6.1c2.9,1.9,72.8,46.4,189.7,46.4s186.7-44.6,189.7-46.4c2.2-1.5,4.1-3.6,5.1-6.1
			C377.2,565.7,377.1,539.7,377,534.7z"/>
	</g>
</g>
</svg>
